<?xml version="1.0" encoding="UTF-8"?>
<svg width="22px" height="23px" viewBox="0 0 22 23" version="1.1" xmlns="http://www.w3.org/2000/svg" xmlns:xlink="http://www.w3.org/1999/xlink">
    <!-- Generator: Sketch 53.2 (72643) - https://sketchapp.com -->
    <title>删 除 copy</title>
    <desc>Created with Sketch.</desc>
    <g id="首页终稿" stroke="none" stroke-width="1" fill="none" fill-rule="evenodd">
        <g id="首页-20190505" transform="translate(-625.000000, -419.000000)" fill="#FFFFFF" fill-rule="nonzero">
            <g id="删-除-copy-2" transform="translate(625.000000, 419.000000)">
                <g id="删-除-copy">
                    <path d="M21.1606154,23 C20.9446288,23 20.7286423,22.9131672 20.5641602,22.7412384 L0.246472607,1.50368161 C-0.0824816763,1.15935458 -0.0821097514,0.601478941 0.247303324,0.257631482 C0.5767164,-0.0862159767 1.1104286,-0.0858272132 1.43938288,0.25849981 L21.7570705,21.4960566 C21.9953079,21.7491138 22.0655827,22.1266056 21.9355111,22.4545772 C21.8054395,22.7825488 21.5002642,22.9973513 21.1606154,23" id="路径"></path>
                    <path d="M0.845347273,22.9999983 C0.503601988,23.0006998 0.195208881,22.7857784 0.0643378123,22.4557071 C-0.0665332566,22.1256358 0.00597209736,21.7456222 0.247958542,21.4933179 L20.5974482,0.217111512 C20.9328491,-0.0876069052 21.4364531,-0.0695360382 21.7510835,0.258507503 C22.0657138,0.586551045 22.0844003,1.11303688 21.7938897,1.46455938 L1.442736,22.7407657 C1.28445273,22.9067221 1.06950822,22.9999957 0.845347273,22.9999983" id="路径"></path>
                </g>
            </g>
        </g>
    </g>
</svg>